<svg xmlns="http://www.w3.org/2000/svg" viewBox="0 0 1000 140" width="1000" height="140" role="img" aria-labelledby="t d"><title id="t">Research · Code · Science · Space · Society</title><desc id="d">Built with curiosity from Mexico. Open research over closed boxes.</desc><style>.m{font-family:'JetBrains Mono','SF Mono','Cascadia Mono',Consolas,'Liberation Mono',Menlo,monospace}.s{font-family:'Inter','Segoe UI','Helvetica Neue',Arial,sans-serif}.r{font-family:'Iowan Old Style','Palatino Linotype',Palatino,Georgia,'Times New Roman',serif}</style><defs><filter id="glow" x="-400%" y="-400%" width="900%" height="900%"><feGaussianBlur stdDeviation="2.4" result="g"/><feMerge><feMergeNode in="g"/><feMergeNode in="SourceGraphic"/></feMerge></filter><filter id="b5" x="-400%" y="-400%" width="900%" height="900%"><feGaussianBlur stdDeviation="5"/></filter><linearGradient id="limb" x1="0" y1="0" x2="1" y2="0"><stop offset="0" stop-color="#86dcea" stop-opacity="0"/><stop offset=".5" stop-color="#86dcea"/><stop offset="1" stop-color="#b7a6f2" stop-opacity="0"/></linearGradient></defs><g fill="#cddcff"><circle cx="622.9" cy="77.9" r="0.80" opacity="0.67"/><circle cx="165.9" cy="17.5" r="0.28" opacity="0.26"/><circle cx="354.8" cy="55.1" r="0.76" opacity="0.21"/><circle cx="626.8" cy="75.7" r="0.28" opacity="0.42"><animate attributeName="opacity" values="0.42;0.11;0.42" dur="9.4s" begin="-3.8s" repeatCount="indefinite"/></circle><circle cx="559.3" cy="70.2" r="0.90" opacity="0.30"/><circle cx="250.7" cy="70.5" r="0.35" opacity="0.60"/><circle cx="350.5" cy="100" r="0.95" opacity="0.63"/><circle cx="199.2" cy="14" r="0.25" opacity="0.60"><animate attributeName="opacity" values="0.60;0.17;0.60" dur="3.5s" begin="-2.2s" repeatCount="indefinite"/></circle><circle cx="474.3" cy="3.9" r="0.37" opacity="0.61"/><circle cx="895" cy="1.7" r="0.25" opacity="0.31"/><circle cx="296.8" cy="55.6" r="0.35" opacity="0.35"/><circle cx="701.2" cy="5.1" r="0.91" opacity="0.27"/><circle cx="179.3" cy="74.9" r="0.55" opacity="0.20"><animate attributeName="opacity" values="0.20;0.05;0.20" dur="8.6s" begin="-3.9s" repeatCount="indefinite"/></circle><circle cx="952" cy="71.5" r="0.26" opacity="0.21"/></g><g fill="#ffffff"><circle cx="530" cy="88.2" r="0.76" opacity="0.29"/><circle cx="480.7" cy="33.2" r="0.36" opacity="0.54"/><circle cx="132.5" cy="0.3" r="0.42" opacity="0.53"/><circle cx="851.9" cy="20.6" r="0.27" opacity="0.61"/><circle cx="791.8" cy="69.7" r="0.25" opacity="0.55"/><circle cx="622.4" cy="4.6" r="0.25" opacity="0.36"/><circle cx="571.1" cy="12.4" r="0.31" opacity="0.49"/></g><g fill="#e4ecff"><circle cx="113.2" cy="49.3" r="0.26" opacity="0.45"/><circle cx="939" cy="99.7" r="0.29" opacity="0.37"/><circle cx="610.8" cy="96.4" r="0.29" opacity="0.66"><animate attributeName="opacity" values="0.66;0.14;0.66" dur="7.4s" begin="-5.9s" repeatCount="indefinite"/></circle><circle cx="141.2" cy="96.8" r="0.50" opacity="0.24"/><circle cx="180.1" cy="51.6" r="0.39" opacity="0.45"/><circle cx="78.8" cy="70.4" r="0.32" opacity="0.49"/><circle cx="193.4" cy="3.7" r="0.35" opacity="0.36"><animate attributeName="opacity" values="0.36;0.12;0.36" dur="4.2s" begin="-1.6s" repeatCount="indefinite"/></circle><circle cx="373.9" cy="3.8" r="0.49" opacity="0.20"/><circle cx="642.3" cy="38.8" r="0.25" opacity="0.48"/><circle cx="293.2" cy="63.8" r="0.36" opacity="0.50"/><circle cx="545.6" cy="1.5" r="0.77" opacity="0.39"/><circle cx="389.9" cy="48.6" r="1.27" opacity="0.21"><animate attributeName="opacity" values="0.21;0.03;0.21" dur="7.7s" begin="-1.2s" repeatCount="indefinite"/></circle></g><g fill="#ffd3a1"><circle cx="731.2" cy="42.9" r="0.25" opacity="0.63"><animate attributeName="opacity" values="0.63;0.10;0.63" dur="8.1s" begin="-5.0s" repeatCount="indefinite"/></circle><circle cx="181.7" cy="101.7" r="0.26" opacity="0.68"/><circle cx="954.4" cy="12.5" r="0.26" opacity="0.60"/><circle cx="237.3" cy="62.4" r="0.87" opacity="0.40"><animate attributeName="opacity" values="0.40;0.12;0.40" dur="9.4s" begin="-7.5s" repeatCount="indefinite"/></circle><circle cx="488.2" cy="76.6" r="0.36" opacity="0.31"/><circle cx="112.6" cy="86.3" r="0.40" opacity="0.25"/><circle cx="956.9" cy="35.7" r="0.25" opacity="0.62"/><circle cx="356.6" cy="28.8" r="0.29" opacity="0.67"/><circle cx="529.3" cy="17.4" r="0.90" opacity="0.67"/><circle cx="951.1" cy="30.8" r="0.29" opacity="0.22"/><circle cx="140.7" cy="66.1" r="1.05" opacity="0.36"/><circle cx="595.8" cy="27.3" r="1.33" opacity="0.42"><animate attributeName="opacity" values="0.42;0.09;0.42" dur="9.1s" begin="-8.5s" repeatCount="indefinite"/></circle><circle cx="953.3" cy="68.1" r="0.96" opacity="0.61"/><circle cx="3.2" cy="81.8" r="0.45" opacity="0.51"/><circle cx="111.2" cy="94" r="1.38" opacity="0.54"><animate attributeName="opacity" values="0.54;0.13;0.54" dur="6.9s" begin="-1.1s" repeatCount="indefinite"/></circle><circle cx="283.4" cy="102.4" r="0.83" opacity="0.62"/></g><g fill="#fff6ea"><circle cx="126.7" cy="0.2" r="0.99" opacity="0.27"/><circle cx="366.2" cy="60.7" r="0.25" opacity="0.18"/><circle cx="367.3" cy="31.1" r="0.33" opacity="0.69"/><circle cx="334.2" cy="21.7" r="1.33" opacity="0.46"/><circle cx="27.6" cy="16.8" r="0.33" opacity="0.51"/><circle cx="180.5" cy="75.4" r="1.35" opacity="0.69"><animate attributeName="opacity" values="0.69;0.14;0.69" dur="3.7s" begin="-0.7s" repeatCount="indefinite"/></circle><circle cx="143.3" cy="2.5" r="0.55" opacity="0.68"/></g><g fill="#ffe7c7"><circle cx="361.2" cy="17.4" r="0.25" opacity="0.19"/><circle cx="586.1" cy="62.6" r="0.63" opacity="0.19"/><circle cx="842.9" cy="91.3" r="0.60" opacity="0.69"/><circle cx="936.4" cy="31.8" r="0.42" opacity="0.63"/><circle cx="781.7" cy="86.8" r="0.25" opacity="0.44"/><circle cx="142.7" cy="50.2" r="0.42" opacity="0.42"/><circle cx="425.6" cy="56.8" r="0.25" opacity="0.55"/><circle cx="314.6" cy="63" r="0.37" opacity="0.67"/><circle cx="138.2" cy="30.9" r="0.44" opacity="0.52"/><circle cx="554.9" cy="65.2" r="0.27" opacity="0.45"/><circle cx="211.5" cy="73.7" r="0.30" opacity="0.61"/></g><g fill="#efe6ff"><circle cx="788" cy="11.2" r="0.33" opacity="0.23"/><circle cx="786" cy="81.4" r="0.61" opacity="0.52"/><circle cx="493.4" cy="50.4" r="0.63" opacity="0.36"/></g><path d="M-20 150Q500 70 1020 150" fill="none" stroke="url(#limb)" stroke-width="6" opacity=".35" filter="url(#b5)"/><path d="M-20 150Q500 70 1020 150" fill="none" stroke="url(#limb)" stroke-width="1.2"/><g><rect x="-2.2" y="-1.6" width="4.4" height="3.2" rx=".6" fill="#ecebf8"/><rect x="-9" y="-1" width="5.6" height="2" fill="#86dcea" opacity=".9"/><rect x="3.4" y="-1" width="5.6" height="2" fill="#86dcea" opacity=".9"/><circle r="1" cy="-2.6" fill="#ff9fb6"><animate attributeName="opacity" values="1;.1;1" dur="1.6s" repeatCount="indefinite"/></circle><animateMotion path="M-20 150Q500 70 1020 150" dur="40s" rotate="auto" repeatCount="indefinite"/></g><text x="500" y="40" class="m" font-size="13.5" fill="#ecebf8" text-anchor="middle" letter-spacing="5">RESEARCH · CODE · SCIENCE · SPACE · SOCIETY</text><text x="500" y="66" class="r" font-size="15" fill="#9a9dc2" text-anchor="middle" font-style="italic">Built with curiosity from Mexico · Open research over closed boxes</text></svg>