<svg xmlns="http://www.w3.org/2000/svg" viewBox="0 0 1000 640" width="1000" height="640" role="img" aria-labelledby="t d"><title id="t">Milky Way research map</title><desc id="d">Star-atlas style research map. Open research sits at the centre; Law, Data, Politics, Technology, Space and Society orbit it as celestial bodies connected by constellation lines. Conceptual map, not empirical data.</desc><style>.m{font-family:'JetBrains Mono','SF Mono','Cascadia Mono',Consolas,'Liberation Mono',Menlo,monospace}.s{font-family:'Inter','Segoe UI','Helvetica Neue',Arial,sans-serif}.r{font-family:'Iowan Old Style','Palatino Linotype',Palatino,Georgia,'Times New Roman',serif}</style><defs><filter id="b3" x="-400%" y="-400%" width="900%" height="900%"><feGaussianBlur stdDeviation="3"/></filter><filter id="b5" x="-400%" y="-400%" width="900%" height="900%"><feGaussianBlur stdDeviation="5"/></filter><filter id="b8" x="-60%" y="-60%" width="220%" height="220%"><feGaussianBlur stdDeviation="8"/></filter><filter id="b12" x="-60%" y="-60%" width="220%" height="220%"><feGaussianBlur stdDeviation="12"/></filter><filter id="b14" x="-60%" y="-60%" width="220%" height="220%"><feGaussianBlur stdDeviation="14"/></filter><filter id="b22" x="-60%" y="-60%" width="220%" height="220%"><feGaussianBlur stdDeviation="22"/></filter><filter id="b26" x="-60%" y="-60%" width="220%" height="220%"><feGaussianBlur stdDeviation="26"/></filter><filter id="b40" x="-60%" y="-60%" width="220%" height="220%"><feGaussianBlur stdDeviation="40"/></filter><filter id="glow" x="-400%" y="-400%" width="900%" height="900%"><feGaussianBlur stdDeviation="2.4" result="g"/><feMerge><feMergeNode in="g"/><feMergeNode in="SourceGraphic"/></feMerge></filter><linearGradient id="oBand" gradientUnits="userSpaceOnUse" x1="-700" y1="0" x2="700" y2="0"><stop offset="0" stop-color="#e2d6ff" stop-opacity=".25"/><stop offset=".3" stop-color="#ffd0e2" stop-opacity=".8"/><stop offset=".52" stop-color="#fff0d6"/><stop offset=".72" stop-color="#e2d6ff" stop-opacity=".8"/><stop offset="1" stop-color="#c9f1f8" stop-opacity=".25"/></linearGradient><radialGradient id="gLaw" cx=".35" cy=".32" r=".8"><stop offset="0" stop-color="#ffffff" stop-opacity=".9"/><stop offset=".38" stop-color="#6a55c8"/><stop offset="1" stop-color="#6a55c8" stop-opacity=".35"/></radialGradient><radialGradient id="gPol" cx=".35" cy=".32" r=".8"><stop offset="0" stop-color="#ffffff" stop-opacity=".9"/><stop offset=".38" stop-color="#b25683"/><stop offset="1" stop-color="#b25683" stop-opacity=".35"/></radialGradient><radialGradient id="gSoc" cx=".35" cy=".32" r=".8"><stop offset="0" stop-color="#ffffff" stop-opacity=".9"/><stop offset=".38" stop-color="#1d8296"/><stop offset="1" stop-color="#1d8296" stop-opacity=".35"/></radialGradient><radialGradient id="vig" cx=".5" cy=".5" r=".7"><stop offset=".65" stop-color="#000" stop-opacity="0"/><stop offset="1" stop-color="#000" stop-opacity=".5"/></radialGradient></defs><rect width="1000" height="640" fill="#f6f2ea"/><ellipse cx="500" cy="320" rx="700" ry="90" fill="#6a55c8" opacity=".07" transform="rotate(28 500 320)" filter="url(#b40)"/><g fill="#2f4f7a"><circle cx="323.8" cy="96.5" r="0.55" opacity="0.13"/><circle cx="123.8" cy="142.9" r="0.53" opacity="0.48"/><circle cx="117.8" cy="197.4" r="0.82" opacity="0.17"/><circle cx="187.9" cy="62.4" r="0.64" opacity="0.33"/><circle cx="573" cy="560.3" r="0.32" opacity="0.38"/><circle cx="534.6" cy="390.3" r="0.33" opacity="0.15"/><circle cx="655" cy="473.5" r="0.38" opacity="0.45"/><circle cx="440.6" cy="70.4" r="0.50" opacity="0.14"/><circle cx="101.5" cy="232.7" r="0.30" opacity="0.45"/><circle cx="528.3" cy="93.8" r="0.44" opacity="0.11"/><circle cx="222.8" cy="346.6" r="0.41" opacity="0.35"/><circle cx="662.5" cy="521.6" r="0.42" opacity="0.43"/><circle cx="151.8" cy="326.8" r="0.95" opacity="0.41"><animate attributeName="opacity" values="0.41;0.07;0.41" dur="8.2s" begin="-3.9s" repeatCount="indefinite"/></circle><circle cx="725.2" cy="356.1" r="0.33" opacity="0.31"/><circle cx="973.4" cy="387.9" r="0.31" opacity="0.21"/><circle cx="776.2" cy="58.1" r="0.82" opacity="0.16"><animate attributeName="opacity" values="0.16;0.03;0.16" dur="3.0s" begin="-0.7s" repeatCount="indefinite"/></circle><circle cx="585.6" cy="338.7" r="0.70" opacity="0.36"/><circle cx="733.9" cy="519.8" r="0.30" opacity="0.31"/><circle cx="70.1" cy="596.8" r="1.01" opacity="0.14"><animate attributeName="opacity" values="0.14;0.03;0.14" dur="7.7s" begin="-0.6s" repeatCount="indefinite"/></circle><circle cx="382.6" cy="306.6" r="0.60" opacity="0.41"/><circle cx="812" cy="403.8" r="1.05" opacity="0.48"/><circle cx="453" cy="213" r="0.71" opacity="0.27"/><circle cx="202.1" cy="12.9" r="0.94" opacity="0.25"/><circle cx="300.3" cy="603.9" r="0.31" opacity="0.20"><animate attributeName="opacity" values="0.20;0.08;0.20" dur="6.4s" begin="-1.8s" repeatCount="indefinite"/></circle><circle cx="316.4" cy="537.2" r="0.31" opacity="0.31"/><circle cx="997.5" cy="596.2" r="0.33" opacity="0.17"/><circle cx="247.4" cy="157" r="0.30" opacity="0.45"/><circle cx="40.4" cy="188" r="0.30" opacity="0.18"/><circle cx="51.7" cy="91.2" r="0.80" opacity="0.26"/><circle cx="370.8" cy="322.9" r="0.30" opacity="0.21"/><circle cx="837.3" cy="27.8" r="1.05" opacity="0.23"/><circle cx="308.2" cy="159.5" r="0.35" opacity="0.25"/><circle cx="23.4" cy="396.1" r="0.40" opacity="0.19"/><circle cx="896.5" cy="176" r="0.82" opacity="0.16"/><circle cx="48.6" cy="549.3" r="1.20" opacity="0.28"/><circle cx="442.3" cy="113.1" r="0.69" opacity="0.12"/><circle cx="56.1" cy="525.4" r="1.00" opacity="0.34"/><circle cx="199.5" cy="389.2" r="0.41" opacity="0.36"/><circle cx="266" cy="354.4" r="0.37" opacity="0.42"/><circle cx="295.6" cy="594.3" r="1.00" opacity="0.13"><animate attributeName="opacity" values="0.13;0.02;0.13" dur="4.5s" begin="-3.4s" repeatCount="indefinite"/></circle><circle cx="379.4" cy="545.2" r="1.07" opacity="0.49"/><circle cx="65.8" cy="377.9" r="0.34" opacity="0.43"/><circle cx="48.1" cy="362.3" r="0.64" opacity="0.43"/><circle cx="645.9" cy="238" r="0.32" opacity="0.27"/><circle cx="379.3" cy="565.7" r="0.31" opacity="0.28"/><circle cx="689.2" cy="387.4" r="0.30" opacity="0.33"/><circle cx="667.9" cy="417.6" r="0.96" opacity="0.36"/><circle cx="940.6" cy="332.3" r="0.30" opacity="0.33"/><circle cx="352.1" cy="169.7" r="0.31" opacity="0.40"/><circle cx="452" cy="502.3" r="0.31" opacity="0.26"/><circle cx="891.1" cy="389.4" r="0.75" opacity="0.37"/><circle cx="599.6" cy="470.1" r="0.30" opacity="0.23"/><circle cx="826.7" cy="187.4" r="0.85" opacity="0.26"/><circle cx="658" cy="505" r="1.04" opacity="0.34"/><circle cx="918.6" cy="285.7" r="0.30" opacity="0.25"/><circle cx="52.7" cy="20.5" r="0.30" opacity="0.45"><animate attributeName="opacity" values="0.45;0.15;0.45" dur="4.9s" begin="-0.8s" repeatCount="indefinite"/></circle><circle cx="861" cy="311.3" r="0.30" opacity="0.25"/><circle cx="418" cy="246.9" r="0.76" opacity="0.48"/><circle cx="279.9" cy="398" r="0.55" opacity="0.42"/><circle cx="283.3" cy="1.1" r="0.31" opacity="0.27"/><circle cx="763.3" cy="501.2" r="0.32" opacity="0.16"/><circle cx="57.6" cy="253.1" r="0.63" opacity="0.47"/><circle cx="195.1" cy="23" r="1.09" opacity="0.19"/></g><g fill="#7b5c48"><circle cx="582.8" cy="582.2" r="0.31" opacity="0.13"><animate attributeName="opacity" values="0.13;0.03;0.13" dur="3.4s" begin="-2.8s" repeatCount="indefinite"/></circle><circle cx="49.6" cy="141.5" r="0.45" opacity="0.15"/><circle cx="680.4" cy="273.7" r="0.32" opacity="0.33"/><circle cx="247.6" cy="250.2" r="0.94" opacity="0.13"/><circle cx="277.8" cy="87.6" r="0.37" opacity="0.32"/><circle cx="492.8" cy="467.8" r="1.27" opacity="0.42"/><circle cx="178.5" cy="505" r="0.33" opacity="0.42"/><circle cx="904.9" cy="516.2" r="0.30" opacity="0.43"/><circle cx="507.7" cy="359.5" r="0.72" opacity="0.46"/><circle cx="892.8" cy="129.7" r="0.38" opacity="0.27"/><circle cx="366" cy="216.3" r="0.38" opacity="0.38"/><circle cx="819.8" cy="543.7" r="0.59" opacity="0.48"/><circle cx="83.7" cy="548" r="0.30" opacity="0.45"><animate attributeName="opacity" values="0.45;0.11;0.45" dur="9.5s" begin="-8.7s" repeatCount="indefinite"/></circle><circle cx="514.2" cy="157.2" r="0.38" opacity="0.36"/><circle cx="342.7" cy="532.7" r="0.63" opacity="0.35"/><circle cx="41.9" cy="407.8" r="1.18" opacity="0.25"/><circle cx="265.6" cy="466.8" r="0.31" opacity="0.40"/><circle cx="675.7" cy="186.1" r="0.42" opacity="0.29"/><circle cx="993.3" cy="351.4" r="0.32" opacity="0.13"><animate attributeName="opacity" values="0.13;0.05;0.13" dur="5.9s" begin="-5.7s" repeatCount="indefinite"/></circle><circle cx="681.6" cy="259.5" r="0.66" opacity="0.27"/><circle cx="265.7" cy="327" r="0.30" opacity="0.25"/><circle cx="286.2" cy="31.3" r="1.08" opacity="0.15"/><circle cx="281.7" cy="163.7" r="0.68" opacity="0.36"/><circle cx="425.2" cy="488.8" r="0.80" opacity="0.49"><animate attributeName="opacity" values="0.49;0.18;0.49" dur="5.4s" begin="-4.5s" repeatCount="indefinite"/></circle><circle cx="971.9" cy="69.7" r="0.84" opacity="0.38"/><circle cx="960.6" cy="451" r="0.32" opacity="0.11"/><circle cx="495.7" cy="128.3" r="0.73" opacity="0.18"/><circle cx="485.1" cy="582.7" r="0.30" opacity="0.34"><animate attributeName="opacity" values="0.34;0.10;0.34" dur="3.0s" begin="-1.2s" repeatCount="indefinite"/></circle><circle cx="758.8" cy="243.3" r="0.73" opacity="0.22"/><circle cx="897" cy="19.4" r="0.36" opacity="0.42"><animate attributeName="opacity" values="0.42;0.06;0.42" dur="3.0s" begin="-2.8s" repeatCount="indefinite"/></circle><circle cx="953.9" cy="247.4" r="0.31" opacity="0.27"/><circle cx="391.7" cy="102.4" r="0.36" opacity="0.36"/><circle cx="991" cy="65.5" r="0.39" opacity="0.43"/><circle cx="856.6" cy="397.5" r="0.51" opacity="0.18"/><circle cx="732.1" cy="521.6" r="0.31" opacity="0.49"/><circle cx="882.5" cy="66.9" r="1.28" opacity="0.35"/><circle cx="747.1" cy="141.8" r="0.32" opacity="0.35"/><circle cx="309.4" cy="192.2" r="0.30" opacity="0.46"/><circle cx="6.3" cy="540.4" r="0.69" opacity="0.29"/><circle cx="843.1" cy="423.7" r="0.68" opacity="0.17"/><circle cx="791" cy="443.8" r="0.41" opacity="0.35"><animate attributeName="opacity" values="0.35;0.12;0.35" dur="4.5s" begin="-0.0s" repeatCount="indefinite"/></circle><circle cx="242.3" cy="545.9" r="0.62" opacity="0.33"/><circle cx="242.4" cy="256.1" r="0.64" opacity="0.16"/><circle cx="798.9" cy="229.1" r="0.56" opacity="0.23"/><circle cx="637.3" cy="421.9" r="0.34" opacity="0.47"><animate attributeName="opacity" values="0.47;0.18;0.47" dur="8.3s" begin="-6.5s" repeatCount="indefinite"/></circle><circle cx="838.8" cy="126.3" r="0.61" opacity="0.31"/><circle cx="117" cy="75.8" r="0.36" opacity="0.43"/><circle cx="58.5" cy="298.9" r="0.30" opacity="0.30"/><circle cx="625.3" cy="216.7" r="0.92" opacity="0.25"/><circle cx="497.8" cy="334.2" r="0.84" opacity="0.41"/><circle cx="975.4" cy="510.2" r="0.45" opacity="0.41"/><circle cx="579.6" cy="574" r="0.98" opacity="0.31"/><circle cx="640.6" cy="612.1" r="0.58" opacity="0.26"/><circle cx="5.8" cy="127.3" r="0.70" opacity="0.34"/><circle cx="105.4" cy="207.3" r="0.31" opacity="0.15"/><circle cx="441.4" cy="516.8" r="1.05" opacity="0.46"/><circle cx="888.7" cy="89.4" r="0.38" opacity="0.14"/><circle cx="628.4" cy="289.5" r="0.33" opacity="0.43"/><circle cx="366" cy="212.5" r="0.68" opacity="0.17"/></g><g fill="#5d4a8a"><circle cx="248.4" cy="115.1" r="0.75" opacity="0.13"/><circle cx="355.5" cy="391" r="0.40" opacity="0.19"/><circle cx="692.5" cy="612.2" r="0.38" opacity="0.47"/><circle cx="985.2" cy="390.6" r="0.30" opacity="0.46"/><circle cx="326" cy="348.4" r="0.86" opacity="0.12"/><circle cx="478" cy="602.6" r="0.62" opacity="0.45"/><circle cx="431.5" cy="330" r="0.33" opacity="0.18"/><circle cx="104.8" cy="170" r="0.30" opacity="0.41"/><circle cx="500.1" cy="113.9" r="0.33" opacity="0.11"><animate attributeName="opacity" values="0.11;0.03;0.11" dur="2.9s" begin="-2.9s" repeatCount="indefinite"/></circle><circle cx="981.9" cy="535.7" r="0.30" opacity="0.35"/><circle cx="55.4" cy="425.7" r="0.35" opacity="0.30"/><circle cx="961.8" cy="622.5" r="0.45" opacity="0.20"/><circle cx="198.3" cy="383.8" r="0.33" opacity="0.36"/><circle cx="998.8" cy="377.1" r="0.34" opacity="0.27"/><circle cx="90.7" cy="218.9" r="0.30" opacity="0.20"/><circle cx="270.2" cy="481.4" r="0.41" opacity="0.33"/><circle cx="503.4" cy="403" r="0.92" opacity="0.19"/><circle cx="647.2" cy="51.9" r="0.31" opacity="0.27"/><circle cx="709.9" cy="117.8" r="0.38" opacity="0.38"/><circle cx="31.9" cy="425.2" r="0.34" opacity="0.25"/><circle cx="705.3" cy="125.3" r="0.44" opacity="0.28"/><circle cx="257" cy="478.3" r="1.01" opacity="0.24"/><circle cx="953.8" cy="27.9" r="0.69" opacity="0.38"/><circle cx="325.8" cy="627.4" r="0.97" opacity="0.50"/><circle cx="293.9" cy="178.8" r="0.31" opacity="0.20"/><circle cx="914" cy="521.4" r="0.83" opacity="0.26"/><circle cx="566.5" cy="228.6" r="0.36" opacity="0.45"/><circle cx="324.2" cy="249.5" r="0.38" opacity="0.44"/><circle cx="480.1" cy="378.8" r="0.51" opacity="0.19"><animate attributeName="opacity" values="0.19;0.03;0.19" dur="4.0s" begin="-3.8s" repeatCount="indefinite"/></circle><circle cx="371.5" cy="240.5" r="0.34" opacity="0.16"/><circle cx="639.2" cy="629.8" r="0.48" opacity="0.37"/><circle cx="534.1" cy="264.5" r="0.32" opacity="0.15"/><circle cx="63.7" cy="92.6" r="0.57" opacity="0.21"/><circle cx="996.6" cy="167.3" r="0.54" opacity="0.15"/><circle cx="944.7" cy="477.5" r="0.33" opacity="0.45"/><circle cx="368" cy="205.3" r="1.19" opacity="0.30"/><circle cx="31" cy="264.3" r="0.37" opacity="0.41"/><circle cx="184.5" cy="316.5" r="0.33" opacity="0.43"/><circle cx="475.7" cy="10.3" r="0.78" opacity="0.25"/><circle cx="638.8" cy="524" r="0.82" opacity="0.29"/><circle cx="360.4" cy="413.8" r="0.30" opacity="0.12"/><circle cx="554.1" cy="583.9" r="0.32" opacity="0.24"/><circle cx="562.1" cy="165.1" r="0.32" opacity="0.27"><animate attributeName="opacity" values="0.27;0.08;0.27" dur="6.6s" begin="-6.0s" repeatCount="indefinite"/></circle><circle cx="858.5" cy="139.7" r="0.30" opacity="0.29"/><circle cx="84.3" cy="402.3" r="0.63" opacity="0.28"/><circle cx="605.8" cy="625.6" r="0.85" opacity="0.34"/><circle cx="201.9" cy="136.1" r="0.30" opacity="0.42"/><circle cx="870.8" cy="361.9" r="0.48" opacity="0.19"/><circle cx="946.5" cy="491" r="0.83" opacity="0.49"/><circle cx="639.8" cy="590.2" r="0.63" opacity="0.14"/><circle cx="370.9" cy="150.5" r="0.65" opacity="0.17"/><circle cx="59.3" cy="353.8" r="0.30" opacity="0.47"/></g><g fill="#2b2f5c"><circle cx="875.1" cy="466.8" r="0.32" opacity="0.49"/><circle cx="165" cy="218.9" r="1.10" opacity="0.27"/><circle cx="796.9" cy="44" r="0.30" opacity="0.21"><animate attributeName="opacity" values="0.21;0.06;0.21" dur="7.5s" begin="-7.4s" repeatCount="indefinite"/></circle><circle cx="821.9" cy="182.1" r="0.35" opacity="0.37"/><circle cx="233.3" cy="310.4" r="0.48" opacity="0.21"/><circle cx="399" cy="66.3" r="0.53" opacity="0.12"/><circle cx="634.4" cy="611.5" r="0.50" opacity="0.29"/><circle cx="993.1" cy="298.2" r="0.40" opacity="0.13"/><circle cx="743.4" cy="54.3" r="0.30" opacity="0.50"/><circle cx="350.4" cy="351.1" r="0.30" opacity="0.11"/><circle cx="776.5" cy="565.3" r="0.30" opacity="0.18"/><circle cx="72.5" cy="154" r="0.30" opacity="0.37"/><circle cx="919.2" cy="365.2" r="0.62" opacity="0.14"/><circle cx="183.3" cy="573" r="0.31" opacity="0.11"/><circle cx="692.7" cy="29" r="0.30" opacity="0.21"/><circle cx="627.8" cy="400.8" r="0.59" opacity="0.30"/><circle cx="133.4" cy="308.7" r="0.40" opacity="0.49"/><circle cx="359.6" cy="386.2" r="0.53" opacity="0.21"/><circle cx="231.4" cy="574.5" r="0.40" opacity="0.11"/><circle cx="840.2" cy="1.1" r="0.70" opacity="0.44"/><circle cx="195.7" cy="7.5" r="0.68" opacity="0.20"/><circle cx="384.6" cy="413.3" r="0.37" opacity="0.22"/><circle cx="776.9" cy="0.9" r="0.30" opacity="0.33"/><circle cx="303.8" cy="81.9" r="0.31" opacity="0.35"/><circle cx="109" cy="50.1" r="0.30" opacity="0.27"/><circle cx="721.6" cy="381.2" r="0.80" opacity="0.48"><animate attributeName="opacity" values="0.48;0.12;0.48" dur="4.4s" begin="-4.2s" repeatCount="indefinite"/></circle><circle cx="327.8" cy="204.5" r="0.34" opacity="0.41"/><circle cx="416.8" cy="397" r="0.58" opacity="0.40"/><circle cx="64.8" cy="161.1" r="0.31" opacity="0.31"/><circle cx="75.1" cy="328.1" r="0.30" opacity="0.34"/><circle cx="312.2" cy="130.2" r="0.78" opacity="0.32"/><circle cx="271.2" cy="632.5" r="0.57" opacity="0.27"/><circle cx="218.1" cy="255.8" r="0.42" opacity="0.25"/><circle cx="970.7" cy="522" r="0.31" opacity="0.45"/><circle cx="365.3" cy="513.5" r="0.41" opacity="0.36"/><circle cx="82.2" cy="469.4" r="0.75" opacity="0.30"/><circle cx="894.9" cy="417.8" r="0.76" opacity="0.11"/><circle cx="679.7" cy="573.1" r="0.30" opacity="0.41"/><circle cx="895.5" cy="84.5" r="0.31" opacity="0.36"><animate attributeName="opacity" values="0.36;0.07;0.36" dur="6.6s" begin="-3.5s" repeatCount="indefinite"/></circle><circle cx="937.2" cy="469.5" r="0.31" opacity="0.46"><animate attributeName="opacity" values="0.46;0.08;0.46" dur="3.0s" begin="-0.5s" repeatCount="indefinite"/></circle><circle cx="30.9" cy="88.6" r="0.54" opacity="0.12"/><circle cx="65.9" cy="555.4" r="1.05" opacity="0.48"/><circle cx="203.2" cy="21.7" r="1.15" opacity="0.46"/><circle cx="336.5" cy="167.1" r="0.34" opacity="0.47"/><circle cx="170.4" cy="0.8" r="0.31" opacity="0.40"><animate attributeName="opacity" values="0.40;0.10;0.40" dur="6.1s" begin="-4.9s" repeatCount="indefinite"/></circle><circle cx="636.5" cy="51.8" r="0.77" opacity="0.38"/><circle cx="355.6" cy="256.8" r="0.35" opacity="0.46"/><circle cx="911.4" cy="179.7" r="0.98" opacity="0.29"/><circle cx="679.6" cy="410.6" r="0.38" opacity="0.23"/><circle cx="328.1" cy="6.8" r="0.85" opacity="0.46"><animate attributeName="opacity" values="0.46;0.08;0.46" dur="6.4s" begin="-5.0s" repeatCount="indefinite"/></circle><circle cx="948" cy="134.5" r="0.60" opacity="0.26"/><circle cx="614" cy="408" r="0.31" opacity="0.25"><animate attributeName="opacity" values="0.25;0.06;0.25" dur="5.6s" begin="-3.9s" repeatCount="indefinite"/></circle><circle cx="994.2" cy="614.9" r="0.38" opacity="0.17"/><circle cx="376.1" cy="162.3" r="0.37" opacity="0.17"/><circle cx="140.4" cy="532" r="0.53" opacity="0.11"/><circle cx="296.8" cy="298.1" r="0.37" opacity="0.50"/><circle cx="873" cy="220.7" r="0.31" opacity="0.30"/><circle cx="317.1" cy="191.5" r="0.48" opacity="0.35"/><circle cx="554.3" cy="259.9" r="0.47" opacity="0.26"><animate attributeName="opacity" values="0.26;0.10;0.26" dur="4.1s" begin="-2.5s" repeatCount="indefinite"/></circle><circle cx="673.7" cy="441" r="0.96" opacity="0.13"/><circle cx="457.9" cy="488.1" r="0.30" opacity="0.17"/><circle cx="659.4" cy="99.4" r="0.73" opacity="0.32"/><circle cx="212.3" cy="97.1" r="0.30" opacity="0.10"/><circle cx="791.7" cy="294.2" r="0.30" opacity="0.42"/><circle cx="564.4" cy="257.6" r="0.42" opacity="0.16"/><circle cx="493.3" cy="554.5" r="0.34" opacity="0.29"/><circle cx="597.2" cy="220.7" r="0.42" opacity="0.11"/><circle cx="338.8" cy="636.6" r="0.34" opacity="0.11"/><circle cx="870.7" cy="293.3" r="1.14" opacity="0.46"/></g><g fill="#46407e"><circle cx="682.7" cy="243.5" r="0.31" opacity="0.13"/><circle cx="740.4" cy="306.3" r="0.61" opacity="0.31"/><circle cx="642.9" cy="58.2" r="0.88" opacity="0.31"/><circle cx="984.9" cy="545.7" r="0.80" opacity="0.43"/><circle cx="364.6" cy="141.1" r="0.31" opacity="0.18"/><circle cx="84.8" cy="422.8" r="1.04" opacity="0.41"/><circle cx="933.6" cy="277.6" r="0.94" opacity="0.43"><animate attributeName="opacity" values="0.43;0.11;0.43" dur="4.2s" begin="-3.2s" repeatCount="indefinite"/></circle><circle cx="154.4" cy="458.3" r="0.56" opacity="0.16"/><circle cx="219.6" cy="609.6" r="0.35" opacity="0.29"/><circle cx="623.9" cy="327.8" r="0.30" opacity="0.49"/><circle cx="621.7" cy="27.7" r="0.63" opacity="0.48"/><circle cx="181.1" cy="596.6" r="0.53" opacity="0.31"/><circle cx="545.9" cy="568.8" r="1.21" opacity="0.22"/><circle cx="183" cy="214.6" r="0.30" opacity="0.21"/><circle cx="326.1" cy="630.2" r="0.30" opacity="0.39"><animate attributeName="opacity" values="0.39;0.14;0.39" dur="8.4s" begin="-5.3s" repeatCount="indefinite"/></circle><circle cx="812.9" cy="10.3" r="0.60" opacity="0.42"/><circle cx="449.5" cy="171.9" r="0.31" opacity="0.48"><animate attributeName="opacity" values="0.48;0.16;0.48" dur="3.4s" begin="-0.9s" repeatCount="indefinite"/></circle><circle cx="280.6" cy="33" r="0.57" opacity="0.35"/><circle cx="80.6" cy="597.4" r="0.36" opacity="0.35"/><circle cx="300.8" cy="356.7" r="0.35" opacity="0.17"><animate attributeName="opacity" values="0.17;0.06;0.17" dur="6.2s" begin="-3.4s" repeatCount="indefinite"/></circle><circle cx="855.5" cy="622.2" r="0.31" opacity="0.14"/><circle cx="34.1" cy="216.4" r="0.36" opacity="0.37"><animate attributeName="opacity" values="0.37;0.13;0.37" dur="4.8s" begin="-0.3s" repeatCount="indefinite"/></circle><circle cx="760.5" cy="188.8" r="1.15" opacity="0.30"/><circle cx="496.5" cy="5.6" r="1.10" opacity="0.22"/><circle cx="208.3" cy="269.5" r="1.26" opacity="0.49"/><circle cx="596.1" cy="396.8" r="0.31" opacity="0.25"><animate attributeName="opacity" values="0.25;0.03;0.25" dur="9.5s" begin="-7.0s" repeatCount="indefinite"/></circle><circle cx="795.8" cy="425" r="0.30" opacity="0.31"/><circle cx="390.7" cy="259.2" r="1.13" opacity="0.27"/><circle cx="820.4" cy="260" r="0.97" opacity="0.28"/><circle cx="67.1" cy="245.6" r="0.70" opacity="0.42"/><circle cx="387.9" cy="578.7" r="0.52" opacity="0.43"/><circle cx="458.3" cy="114.9" r="0.39" opacity="0.14"/><circle cx="811" cy="508.8" r="0.60" opacity="0.39"><animate attributeName="opacity" values="0.39;0.13;0.39" dur="5.2s" begin="-0.8s" repeatCount="indefinite"/></circle><circle cx="474.9" cy="86.2" r="1.11" opacity="0.20"/><circle cx="911.7" cy="67.1" r="0.51" opacity="0.36"/><circle cx="839.7" cy="446.5" r="0.91" opacity="0.27"/><circle cx="307.8" cy="135.7" r="0.52" opacity="0.13"/><circle cx="26.9" cy="68.3" r="1.09" opacity="0.24"/><circle cx="631.5" cy="183.9" r="0.30" opacity="0.14"/><circle cx="158.9" cy="521.8" r="1.12" opacity="0.19"/><circle cx="257.2" cy="147.9" r="0.33" opacity="0.36"/><circle cx="267.5" cy="483" r="0.84" opacity="0.35"/><circle cx="723.2" cy="385.9" r="0.33" opacity="0.19"/><circle cx="955" cy="636.8" r="0.30" opacity="0.36"/><circle cx="983.8" cy="508.7" r="0.67" opacity="0.27"/><circle cx="19.7" cy="549.5" r="0.42" opacity="0.36"/><circle cx="634.3" cy="300.3" r="0.46" opacity="0.19"/><circle cx="649.6" cy="499.1" r="0.39" opacity="0.41"/><circle cx="72" cy="187.5" r="0.50" opacity="0.33"/><circle cx="94" cy="309.9" r="0.71" opacity="0.16"/><circle cx="100.6" cy="595.5" r="0.30" opacity="0.45"/><circle cx="242.3" cy="469.5" r="0.30" opacity="0.12"/><circle cx="469.8" cy="106.5" r="1.20" opacity="0.15"/><circle cx="976.4" cy="157.5" r="0.35" opacity="0.25"/><circle cx="85.1" cy="354.4" r="0.78" opacity="0.18"/><circle cx="709.6" cy="413.9" r="1.25" opacity="0.12"/><circle cx="144.7" cy="557.3" r="0.31" opacity="0.26"><animate attributeName="opacity" values="0.26;0.05;0.26" dur="6.6s" begin="-5.3s" repeatCount="indefinite"/></circle></g><g><circle cx="500" cy="320" r="300" fill="none" stroke="#5c5f88" stroke-opacity=".35"/><path d="M789 320L800 320M792.9 345.6L798.9 346.1M789.5 371.1L795.4 372.1M784 396.1L789.8 397.6M776.3 420.6L781.9 422.6M766.5 444.2L771.9 446.8M750.3 464.5L759.8 470M740.8 488.6L745.7 492.1M725.2 509L729.8 512.8M707.9 527.9L712.1 532.1M689 545.2L692.8 549.8M668.6 560.8L672.1 565.7M644.5 570.3L650 579.8M624.2 586.5L626.8 591.9M600.6 596.3L602.6 601.9M576.1 604L577.6 609.8M551.1 609.5L552.1 615.4M525.6 612.9L526.1 618.9M500 609L500 620M474.4 612.9L473.9 618.9M448.9 609.5L447.9 615.4M423.9 604L422.4 609.8M399.4 596.3L397.4 601.9M375.8 586.5L373.2 591.9M355.5 570.3L350 579.8M331.4 560.8L327.9 565.7M311 545.2L307.2 549.8M292.1 527.9L287.9 532.1M274.8 509L270.2 512.8M259.2 488.6L254.3 492.1M249.7 464.5L240.2 470M233.5 444.2L228.1 446.8M223.7 420.6L218.1 422.6M216 396.1L210.2 397.6M210.5 371.1L204.6 372.1M207.1 345.6L201.1 346.1M211 320L200 320M207.1 294.4L201.1 293.9M210.5 268.9L204.6 267.9M216 243.9L210.2 242.4M223.7 219.4L218.1 217.4M233.5 195.8L228.1 193.2M249.7 175.5L240.2 170M259.2 151.4L254.3 147.9M274.8 131L270.2 127.2M292.1 112.1L287.9 107.9M311 94.8L307.2 90.2M331.4 79.2L327.9 74.3M355.5 69.7L350 60.2M375.8 53.5L373.2 48.1M399.4 43.7L397.4 38.1M423.9 36L422.4 30.2M448.9 30.5L447.9 24.6M474.4 27.1L473.9 21.1M500 31L500 20M525.6 27.1L526.1 21.1M551.1 30.5L552.1 24.6M576.1 36L577.6 30.2M600.6 43.7L602.6 38.1M624.2 53.5L626.8 48.1M644.5 69.7L650 60.2M668.6 79.2L672.1 74.3M689 94.8L692.8 90.2M707.9 112.1L712.1 107.9M725.2 131L729.8 127.2M740.8 151.4L745.7 147.9M750.3 175.5L759.8 170M766.5 195.8L771.9 193.2M776.3 219.4L781.9 217.4M784 243.9L789.8 242.4M789.5 268.9L795.4 267.9M792.9 294.4L798.9 293.9" stroke="#5c5f88" stroke-opacity=".5" stroke-width=".8"/><text x="500" y="46.5" class="m" font-size="9" fill="#5c5f88" text-anchor="middle" opacity="0.7">0°</text><text x="638.5" y="83.6" class="m" font-size="9" fill="#5c5f88" text-anchor="middle" opacity="0.7">30°</text><text x="739.9" y="185" class="m" font-size="9" fill="#5c5f88" text-anchor="middle" opacity="0.7">60°</text><text x="777" y="323.5" class="m" font-size="9" fill="#5c5f88" text-anchor="middle" opacity="0.7">90°</text><text x="739.9" y="462" class="m" font-size="9" fill="#5c5f88" text-anchor="middle" opacity="0.7">120°</text><text x="638.5" y="563.4" class="m" font-size="9" fill="#5c5f88" text-anchor="middle" opacity="0.7">150°</text><text x="500" y="600.5" class="m" font-size="9" fill="#5c5f88" text-anchor="middle" opacity="0.7">180°</text><text x="361.5" y="563.4" class="m" font-size="9" fill="#5c5f88" text-anchor="middle" opacity="0.7">210°</text><text x="260.1" y="462" class="m" font-size="9" fill="#5c5f88" text-anchor="middle" opacity="0.7">240°</text><text x="223" y="323.5" class="m" font-size="9" fill="#5c5f88" text-anchor="middle" opacity="0.7">270°</text><text x="260.1" y="185" class="m" font-size="9" fill="#5c5f88" text-anchor="middle" opacity="0.7">300°</text><text x="361.5" y="83.6" class="m" font-size="9" fill="#5c5f88" text-anchor="middle" opacity="0.7">330°</text><animateTransform attributeName="transform" type="rotate" from="0 500 320" to="-360 500 320" dur="900s" repeatCount="indefinite"/></g><path d="M500 320L785 320M500 320L746.8 462.5M500 320L642.5 566.8M500 320L500 605M500 320L357.5 566.8M500 320L253.2 462.5M500 320L215 320M500 320L253.2 177.5M500 320L357.5 73.2M500 320L500 35M500 320L642.5 73.2M500 320L746.8 177.5" stroke="#5c5f88" stroke-opacity=".12" stroke-width=".7"/><circle cx="500" cy="320" r="125" fill="none" stroke="#5c5f88" stroke-opacity=".28"/><g><circle cx="500" cy="320" r="125" fill="none" stroke="#1d8296" stroke-opacity=".55" stroke-dasharray="2 10"/><animateTransform attributeName="transform" type="rotate" from="0 500 320" to="360 500 320" dur="120s" repeatCount="indefinite"/></g><circle r="2" fill="#1d8296" filter="url(#glow)"><animateMotion path="M625 320A125 125 0 1 1 375 320A125 125 0 1 1 625 320" dur="38s" repeatCount="indefinite"/></circle><circle cx="500" cy="320" r="195" fill="none" stroke="#5c5f88" stroke-opacity=".28"/><g><circle cx="500" cy="320" r="195" fill="none" stroke="#1d8296" stroke-opacity=".55" stroke-dasharray="1 8"/><animateTransform attributeName="transform" type="rotate" from="0 500 320" to="-360 500 320" dur="200s" repeatCount="indefinite"/></g><circle r="2" fill="#1d8296" filter="url(#glow)"><animateMotion path="M695 320A195 195 0 1 1 305 320A195 195 0 1 1 695 320" dur="64s" repeatCount="indefinite"/></circle><circle cx="500" cy="320" r="265" fill="none" stroke="#5c5f88" stroke-opacity=".28"/><g><circle cx="500" cy="320" r="265" fill="none" stroke="#1d8296" stroke-opacity=".55" stroke-dasharray="3 14"/><animateTransform attributeName="transform" type="rotate" from="0 500 320" to="360 500 320" dur="280s" repeatCount="indefinite"/></g><circle r="2" fill="#1d8296" filter="url(#glow)"><animateMotion path="M765 320A265 265 0 1 1 235 320A265 265 0 1 1 765 320" dur="92s" repeatCount="indefinite"/></circle><g><line x1="409.4" y1="71" x2="597.5" y2="151.1" stroke="#1d2148" stroke-opacity=".22" stroke-width=".8"/><line x1="597.5" y1="151.1" x2="617.5" y2="362.8" stroke="#1d2148" stroke-opacity=".22" stroke-width=".8"/><line x1="617.5" y1="362.8" x2="590.6" y2="569" stroke="#1d2148" stroke-opacity=".22" stroke-width=".8"/><line x1="590.6" y1="569" x2="402.5" y2="488.9" stroke="#1d2148" stroke-opacity=".22" stroke-width=".8"/><line x1="402.5" y1="488.9" x2="382.5" y2="277.2" stroke="#1d2148" stroke-opacity=".22" stroke-width=".8"/><line x1="382.5" y1="277.2" x2="409.4" y2="71" stroke="#1d2148" stroke-opacity=".22" stroke-width=".8"/><line x1="500" y1="320" x2="382.5" y2="277.2" stroke="#6a55c8" stroke-opacity=".3" stroke-dasharray="1 5"/><circle r="1.6" fill="#1f7f96" filter="url(#glow)" opacity="0"><animateMotion path="M500 320L382.5 277.2" dur="5.0s" begin="0.0s" repeatCount="indefinite"/><animate attributeName="opacity" values="0;1;1;0" keyTimes="0;.1;.85;1" dur="5.0s" begin="0.0s" repeatCount="indefinite"/></circle><line x1="500" y1="320" x2="617.5" y2="362.8" stroke="#6a55c8" stroke-opacity=".3" stroke-dasharray="1 5"/><circle r="1.6" fill="#1f7f96" filter="url(#glow)" opacity="0"><animateMotion path="M500 320L617.5 362.8" dur="5.6s" begin="-1.3s" repeatCount="indefinite"/><animate attributeName="opacity" values="0;1;1;0" keyTimes="0;.1;.85;1" dur="5.6s" begin="-1.3s" repeatCount="indefinite"/></circle><line x1="500" y1="320" x2="402.5" y2="488.9" stroke="#6a55c8" stroke-opacity=".3" stroke-dasharray="1 5"/><circle r="1.6" fill="#1f7f96" filter="url(#glow)" opacity="0"><animateMotion path="M500 320L402.5 488.9" dur="6.2s" begin="-2.6s" repeatCount="indefinite"/><animate attributeName="opacity" values="0;1;1;0" keyTimes="0;.1;.85;1" dur="6.2s" begin="-2.6s" repeatCount="indefinite"/></circle><line x1="500" y1="320" x2="597.5" y2="151.1" stroke="#6a55c8" stroke-opacity=".3" stroke-dasharray="1 5"/><circle r="1.6" fill="#1f7f96" filter="url(#glow)" opacity="0"><animateMotion path="M500 320L597.5 151.1" dur="6.8s" begin="-3.9000000000000004s" repeatCount="indefinite"/><animate attributeName="opacity" values="0;1;1;0" keyTimes="0;.1;.85;1" dur="6.8s" begin="-3.9000000000000004s" repeatCount="indefinite"/></circle><line x1="500" y1="320" x2="409.4" y2="71" stroke="#6a55c8" stroke-opacity=".3" stroke-dasharray="1 5"/><circle r="1.6" fill="#1f7f96" filter="url(#glow)" opacity="0"><animateMotion path="M500 320L409.4 71" dur="7.4s" begin="-5.2s" repeatCount="indefinite"/><animate attributeName="opacity" values="0;1;1;0" keyTimes="0;.1;.85;1" dur="7.4s" begin="-5.2s" repeatCount="indefinite"/></circle><line x1="500" y1="320" x2="590.6" y2="569" stroke="#6a55c8" stroke-opacity=".3" stroke-dasharray="1 5"/><circle r="1.6" fill="#1f7f96" filter="url(#glow)" opacity="0"><animateMotion path="M500 320L590.6 569" dur="8.0s" begin="-6.5s" repeatCount="indefinite"/><animate attributeName="opacity" values="0;1;1;0" keyTimes="0;.1;.85;1" dur="8.0s" begin="-6.5s" repeatCount="indefinite"/></circle><circle r="1.5" fill="#ad6d22" filter="url(#glow)" opacity="0"><animateMotion path="M409.4 71L597.5 151.1L617.5 362.8L590.6 569L402.5 488.9L382.5 277.2L409.4 71" dur="30s" begin="0s" repeatCount="indefinite"/><animate attributeName="opacity" values="0;1;1;0" keyTimes="0;.1;.85;1" dur="30s" begin="0s" repeatCount="indefinite"/></circle><g transform="translate(382.5 277.2)"><g><ellipse rx="25" ry="6.5" fill="none" stroke="#ad6d22" stroke-opacity=".5" stroke-width="1.6" transform="rotate(-20)"/><circle r="13" fill="url(#gLaw)"/><path d="M-23.5 8.6A25 6.5 -20 0 0 23.5 -8.6" fill="none" stroke="#ad6d22" stroke-width="1.6" transform="rotate(0)"/><text x="0" y="38" class="m" font-size="13.5" fill="#1d2148" text-anchor="middle" letter-spacing="3.2" font-weight="600" stroke="#f6f2ea" stroke-width="4" stroke-linejoin="round" paint-order="stroke">LAW</text><text x="0" y="54" class="m" font-size="10.5" fill="#5c5f88" text-anchor="middle" letter-spacing="1" stroke="#f6f2ea" stroke-width="4" stroke-linejoin="round" paint-order="stroke">norms · sovereignty</text><animateTransform attributeName="transform" type="rotate" from="0" to="-360" dur="360s" repeatCount="indefinite"/></g></g><g transform="translate(617.5 362.8)"><g><circle r="16" fill="none" stroke="#ad6d22" stroke-opacity=".4" stroke-dasharray="2 3"/><circle cx="-6" cy="-6" r="1.6" fill="#ad6d22"><animate attributeName="opacity" values="1;.35;1" dur="2.00s" repeatCount="indefinite"/></circle><circle cx="0" cy="-8" r="2.1" fill="#ad6d22"><animate attributeName="opacity" values="1;.35;1" dur="2.37s" repeatCount="indefinite"/></circle><circle cx="6" cy="-5" r="2.6" fill="#ad6d22"><animate attributeName="opacity" values="1;.35;1" dur="2.74s" repeatCount="indefinite"/></circle><circle cx="-8" cy="1" r="1.6" fill="#ad6d22"><animate attributeName="opacity" values="1;.35;1" dur="3.11s" repeatCount="indefinite"/></circle><circle cx="-1" cy="0" r="2.1" fill="#ad6d22"><animate attributeName="opacity" values="1;.35;1" dur="3.48s" repeatCount="indefinite"/></circle><circle cx="7" cy="2" r="2.6" fill="#ad6d22"><animate attributeName="opacity" values="1;.35;1" dur="3.85s" repeatCount="indefinite"/></circle><circle cx="-4" cy="7" r="1.6" fill="#ad6d22"><animate attributeName="opacity" values="1;.35;1" dur="4.22s" repeatCount="indefinite"/></circle><circle cx="3" cy="8" r="2.1" fill="#ad6d22"><animate attributeName="opacity" values="1;.35;1" dur="4.59s" repeatCount="indefinite"/></circle><text x="0" y="38" class="m" font-size="13.5" fill="#1d2148" text-anchor="middle" letter-spacing="3.2" font-weight="600" stroke="#f6f2ea" stroke-width="4" stroke-linejoin="round" paint-order="stroke">DATA</text><text x="0" y="54" class="m" font-size="10.5" fill="#5c5f88" text-anchor="middle" letter-spacing="1" stroke="#f6f2ea" stroke-width="4" stroke-linejoin="round" paint-order="stroke">signals · methods</text><animateTransform attributeName="transform" type="rotate" from="0" to="-360" dur="360s" repeatCount="indefinite"/></g></g><g transform="translate(402.5 488.9)"><g><circle r="21" fill="none" stroke="#b25683" stroke-opacity=".25"/><circle r="12" fill="url(#gPol)"/><circle r="2.2" fill="#1d2148" opacity=".85"><animateMotion path="M21 0A21 21 0 1 1 -21 0A21 21 0 1 1 21 0" dur="11s" repeatCount="indefinite"/></circle><circle r="1.6" fill="#1d2148" opacity=".85"><animateMotion path="M27 0A27 27 0 1 1 -27 0A27 27 0 1 1 27 0" dur="17s" repeatCount="indefinite"/></circle><text x="0" y="38" class="m" font-size="13.5" fill="#1d2148" text-anchor="middle" letter-spacing="3.2" font-weight="600" stroke="#f6f2ea" stroke-width="4" stroke-linejoin="round" paint-order="stroke">POLITICS</text><text x="0" y="54" class="m" font-size="10.5" fill="#5c5f88" text-anchor="middle" letter-spacing="1" stroke="#f6f2ea" stroke-width="4" stroke-linejoin="round" paint-order="stroke">power · institutions</text><animateTransform attributeName="transform" type="rotate" from="0" to="-360" dur="360s" repeatCount="indefinite"/></g></g><g transform="translate(597.5 151.1)"><g><g><polygon points="11.3,6.5 0,13 -11.3,6.5 -11.3,-6.5 0,-13 11.3,-6.5" fill="#fcfbf7" stroke="#1d8296" stroke-width="1.4"/><path d="M0 -13V13M-11.3 -6.5L11.3 6.5M-11.3 6.5L11.3 -6.5" stroke="#1d8296" stroke-opacity=".35"/><animateTransform attributeName="transform" type="rotate" from="0" to="360" dur="40s" repeatCount="indefinite"/></g><circle r="3" fill="#1d8296" filter="url(#glow)"/><text x="0" y="38" class="m" font-size="13.5" fill="#1d2148" text-anchor="middle" letter-spacing="3.2" font-weight="600" stroke="#f6f2ea" stroke-width="4" stroke-linejoin="round" paint-order="stroke">TECHNOLOGY</text><text x="0" y="54" class="m" font-size="10.5" fill="#5c5f88" text-anchor="middle" letter-spacing="1" stroke="#f6f2ea" stroke-width="4" stroke-linejoin="round" paint-order="stroke">infrastructure · AI</text><animateTransform attributeName="transform" type="rotate" from="0" to="-360" dur="360s" repeatCount="indefinite"/></g></g><g transform="translate(409.4 71)"><g><circle r="18" fill="#1d8296" opacity=".2" filter="url(#b8)"/><g transform="translate(0 0)"><g opacity=".6"><circle r="8.3" fill="#2a6f9a" opacity=".22" filter="url(#b3)"/><path d="M0 -14.3L0.8 0 0 14.3 -0.8 0ZM-14.3 0 0 0.8 14.3 0 0 -0.8Z" fill="#2a6f9a" opacity=".6"/><circle r="2.6" fill="#2a6f9a"/><animateTransform attributeName="transform" type="scale" values="1;1;1.9;1;1" keyTimes="0;.80;.85;.93;1" dur="13s" begin="-4s" repeatCount="indefinite"/><animate attributeName="opacity" values=".6;.6;1;.6;.6" keyTimes="0;.80;.85;.93;1" dur="13s" begin="-4s" repeatCount="indefinite"/></g></g><text x="0" y="38" class="m" font-size="13.5" fill="#1d2148" text-anchor="middle" letter-spacing="3.2" font-weight="600" stroke="#f6f2ea" stroke-width="4" stroke-linejoin="round" paint-order="stroke">SPACE</text><text x="0" y="54" class="m" font-size="10.5" fill="#5c5f88" text-anchor="middle" letter-spacing="1" stroke="#f6f2ea" stroke-width="4" stroke-linejoin="round" paint-order="stroke">orbits · governance</text><animateTransform attributeName="transform" type="rotate" from="0" to="-360" dur="360s" repeatCount="indefinite"/></g></g><g transform="translate(590.6 569)"><g><circle r="15" fill="none" stroke="#6a55c8" stroke-opacity=".3"/><g><circle cx="-6" r="5.5" fill="url(#gSoc)"/><circle cx="7" r="4" fill="url(#gPol)"/><animateTransform attributeName="transform" type="rotate" from="0" to="360" dur="14s" repeatCount="indefinite"/></g><text x="0" y="38" class="m" font-size="13.5" fill="#1d2148" text-anchor="middle" letter-spacing="3.2" font-weight="600" stroke="#f6f2ea" stroke-width="4" stroke-linejoin="round" paint-order="stroke">SOCIETY</text><text x="0" y="54" class="m" font-size="10.5" fill="#5c5f88" text-anchor="middle" letter-spacing="1" stroke="#f6f2ea" stroke-width="4" stroke-linejoin="round" paint-order="stroke">people · rights</text><animateTransform attributeName="transform" type="rotate" from="0" to="-360" dur="360s" repeatCount="indefinite"/></g></g><animateTransform attributeName="transform" type="rotate" from="0 500 320" to="360 500 320" dur="360s" repeatCount="indefinite"/></g><circle cx="500" cy="320" r="46" fill="#ad6d22" opacity="0.14" filter="url(#b14)"/><circle cx="500" cy="320" r="28" fill="#6a55c8" opacity=".18" filter="url(#b8)"/><circle cx="500" cy="320" r="9" fill="none" stroke="#6a55c8" stroke-width="1.2" opacity="0"><animate attributeName="r" values="9;42" dur="4.4s" begin="0s" repeatCount="indefinite"/><animate attributeName="opacity" values=".75;0" dur="4.4s" begin="0s" repeatCount="indefinite"/></circle><circle cx="500" cy="320" r="9" fill="none" stroke="#6a55c8" stroke-width="1.2" opacity="0"><animate attributeName="r" values="9;42" dur="4.4s" begin="-2.2s" repeatCount="indefinite"/><animate attributeName="opacity" values=".75;0" dur="4.4s" begin="-2.2s" repeatCount="indefinite"/></circle><g><circle cx="500" cy="320" r="21" fill="none" stroke="#6a55c8" stroke-opacity=".6" stroke-dasharray="2 4"/><animateTransform attributeName="transform" type="rotate" from="0 500 320" to="360 500 320" dur="30s" repeatCount="indefinite"/></g><circle cx="500" cy="320" r="7" fill="#ffffff" filter="url(#glow)"><animate attributeName="r" values="7;9.1;7" dur="4.4s" repeatCount="indefinite"/></circle><text x="500" y="360" class="m" font-size="14" fill="#1d2148" text-anchor="middle" letter-spacing="4" font-weight="600" stroke="#f6f2ea" stroke-width="4" stroke-linejoin="round" paint-order="stroke">OPEN RESEARCH</text><text x="40" y="48" class="m" font-size="14" fill="#1d2148" letter-spacing="3.6" font-weight="600">MILKY WAY RESEARCH MAP</text><text x="40" y="68" class="m" font-size="11" fill="#5c5f88" letter-spacing="2.4">STAR ATLAS · PLATE II</text><text x="46" y="560" class="m" font-size="13" fill="#1d8296" text-anchor="middle">✦</text><text x="60" y="560" class="m" font-size="11" fill="#5c5f88" letter-spacing="0.6">domain · celestial body</text><text x="46" y="580" class="m" font-size="13" fill="#1d8296" text-anchor="middle">◌</text><text x="60" y="580" class="m" font-size="11" fill="#5c5f88" letter-spacing="0.6">orbit · line of inquiry</text><text x="46" y="600" class="m" font-size="13" fill="#1d8296" text-anchor="middle">·</text><text x="60" y="600" class="m" font-size="11" fill="#5c5f88" letter-spacing="0.6">particle · idea in transit</text><text x="960" y="48" class="m" font-size="12" fill="#1d2148" text-anchor="end" letter-spacing="3">CONCEPTUAL MAP</text><text x="960" y="66" class="m" font-size="11" fill="#5c5f88" text-anchor="end" letter-spacing="2.4">NOT EMPIRICAL DATA</text><text x="960" y="600" class="r" font-size="11" fill="#5c5f88" text-anchor="end" letter-spacing="0.6" font-style="italic">orbital periods are illustrative</text><path d="M20 12v4M20 628v-4M40 12v4M40 628v-4M60 12v4M60 628v-4M80 12v4M80 628v-4M100 12v9M100 628v-9M120 12v4M120 628v-4M140 12v4M140 628v-4M160 12v4M160 628v-4M180 12v4M180 628v-4M200 12v9M200 628v-9M220 12v4M220 628v-4M240 12v4M240 628v-4M260 12v4M260 628v-4M280 12v4M280 628v-4M300 12v9M300 628v-9M320 12v4M320 628v-4M340 12v4M340 628v-4M360 12v4M360 628v-4M380 12v4M380 628v-4M400 12v9M400 628v-9M420 12v4M420 628v-4M440 12v4M440 628v-4M460 12v4M460 628v-4M480 12v4M480 628v-4M500 12v9M500 628v-9M520 12v4M520 628v-4M540 12v4M540 628v-4M560 12v4M560 628v-4M580 12v4M580 628v-4M600 12v9M600 628v-9M620 12v4M620 628v-4M640 12v4M640 628v-4M660 12v4M660 628v-4M680 12v4M680 628v-4M700 12v9M700 628v-9M720 12v4M720 628v-4M740 12v4M740 628v-4M760 12v4M760 628v-4M780 12v4M780 628v-4M800 12v9M800 628v-9M820 12v4M820 628v-4M840 12v4M840 628v-4M860 12v4M860 628v-4M880 12v4M880 628v-4M900 12v9M900 628v-9M920 12v4M920 628v-4M940 12v4M940 628v-4M960 12v4M960 628v-4M980 12v4M980 628v-4M12 20h4M988 20h-4M12 40h4M988 40h-4M12 60h4M988 60h-4M12 80h4M988 80h-4M12 100h9M988 100h-9M12 120h4M988 120h-4M12 140h4M988 140h-4M12 160h4M988 160h-4M12 180h4M988 180h-4M12 200h9M988 200h-9M12 220h4M988 220h-4M12 240h4M988 240h-4M12 260h4M988 260h-4M12 280h4M988 280h-4M12 300h9M988 300h-9M12 320h4M988 320h-4M12 340h4M988 340h-4M12 360h4M988 360h-4M12 380h4M988 380h-4M12 400h9M988 400h-9M12 420h4M988 420h-4M12 440h4M988 440h-4M12 460h4M988 460h-4M12 480h4M988 480h-4M12 500h9M988 500h-9M12 520h4M988 520h-4M12 540h4M988 540h-4M12 560h4M988 560h-4M12 580h4M988 580h-4M12 600h9M988 600h-9M12 620h4M988 620h-4" stroke="#b3aecb" stroke-width=".7" opacity="0.35" fill="none"/><path d="M12 38V12H38M962 12H988V38M988 602V628H962M38 628H12V602" stroke="#b3aecb" stroke-width="1.2" opacity="0.6" fill="none"/></svg>